<?xml version="1.0" encoding="utf-8"?>
<!-- Generator: Adobe Illustrator 24.3.0, SVG Export Plug-In . SVG Version: 6.00 Build 0)  -->
<svg version="1.1" id="Layer_1" xmlns="http://www.w3.org/2000/svg" xmlns:xlink="http://www.w3.org/1999/xlink" x="0px" y="0px"
	 viewBox="0 0 1281.6 481.1" style="enable-background:new 0 0 1281.6 481.1;" xml:space="preserve">
<style type="text/css">
	.st0{fill:#5088D4;}
	.st1{fill:#F0C959;}
</style>
<g>
	<path d="M607.4,253.6c0,19-3.5,35.3-10.4,49s-16.5,24.1-28.5,31.5c-12.1,7.3-25.8,11-41.1,11c-15.4,0-29.2-3.7-41.2-11
		c-12.1-7.3-21.6-17.8-28.5-31.5c-7-13.7-10.4-30-10.4-48.9c0-19,3.5-35.3,10.4-49c7-13.6,16.5-24.1,28.5-31.5
		c12.1-7.3,25.8-11,41.2-11c15.3,0,29.1,3.7,41.1,11c12.1,7.3,21.6,17.8,28.5,31.5C603.9,218.3,607.4,234.6,607.4,253.6z
		 M580.8,253.6c0-14.5-2.3-26.7-7-36.6c-4.7-9.9-11-17.5-19.1-22.6c-8.1-5.1-17.2-7.7-27.4-7.7c-10.3,0-19.4,2.6-27.5,7.7
		c-8.1,5.1-14.4,12.7-19.1,22.6c-4.7,9.9-7,22.1-7,36.6c0,14.5,2.3,26.7,7,36.6c4.7,9.9,11,17.5,19.1,22.6
		c8.1,5.1,17.2,7.7,27.5,7.7c10.2,0,19.3-2.6,27.4-7.7c8.1-5.1,14.5-12.7,19.1-22.6C578.5,280.3,580.8,268.1,580.8,253.6z"/>
	<path d="M630.6,392.6V209.1H656v21.6h2.2c1.5-2.8,3.7-6,6.5-9.6c2.8-3.6,6.8-6.8,11.8-9.6c5-2.8,11.7-4.1,20-4.1
		c10.8,0,20.4,2.7,28.8,8.2c8.5,5.4,15.1,13.3,19.9,23.5c4.8,10.3,7.3,22.6,7.3,37s-2.4,26.8-7.2,37.1
		c-4.8,10.3-11.4,18.2-19.8,23.7c-8.4,5.5-18,8.3-28.8,8.3c-8.1,0-14.7-1.4-19.9-4.1s-9.1-5.9-12-9.6c-2.9-3.6-5.1-6.9-6.7-9.7h-1.6
		v70.8H630.6z M656.1,275.9c0,9.4,1.4,17.6,4.1,24.7c2.7,7.1,6.7,12.6,11.8,16.6c5.2,4,11.5,6,18.9,6c7.8,0,14.2-2.1,19.5-6.2
		c5.2-4.1,9.2-9.8,11.9-16.9c2.7-7.1,4-15.1,4-24.1c0-8.8-1.3-16.7-4-23.7c-2.6-7-6.6-12.5-11.8-16.6c-5.2-4.1-11.8-6.1-19.6-6.1
		c-7.5,0-13.9,1.9-19.1,5.8c-5.2,3.9-9.1,9.3-11.8,16.2C657.4,258.5,656.1,266.6,656.1,275.9z"/>
	<path d="M873.6,241.7l-23.5,4.2c-1-3-2.5-5.9-4.6-8.6c-2.1-2.7-5-5-8.6-6.7c-3.6-1.7-8.1-2.6-13.5-2.6c-7.4,0-13.5,1.6-18.4,4.9
		c-4.9,3.3-7.4,7.5-7.4,12.6c0,4.5,1.7,8.1,5,10.8c3.3,2.7,8.6,5,16,6.7l21.2,4.9c12.3,2.8,21.4,7.2,27.5,13.1c6,5.9,9,13.6,9,23
		c0,8-2.3,15.1-6.9,21.3c-4.6,6.2-11,11.1-19.2,14.6c-8.2,3.5-17.7,5.3-28.5,5.3c-14.9,0-27.1-3.2-36.6-9.6
		c-9.4-6.4-15.2-15.5-17.4-27.3l25.1-3.8c1.6,6.5,4.8,11.5,9.6,14.8c4.9,3.3,11.2,5,19,5c8.5,0,15.3-1.8,20.4-5.3
		c5.1-3.6,7.6-7.9,7.6-13.1c0-4.2-1.6-7.7-4.6-10.5c-3.1-2.8-7.8-5-14.2-6.4l-22.6-5c-12.5-2.8-21.7-7.4-27.6-13.6
		c-5.9-6.2-8.9-14-8.9-23.5c0-7.9,2.2-14.8,6.6-20.7c4.4-5.9,10.5-10.5,18.2-13.9c7.8-3.3,16.7-5,26.7-5c14.4,0,25.8,3.1,34.1,9.3
		C865.4,223,870.9,231.3,873.6,241.7z"/>
	<path d="M898.7,164.6h32.6L987.9,303h2.1l56.7-138.3h32.6v178h-25.5V213.8h-1.7l-52.5,128.5h-21.2l-52.5-128.6h-1.7v128.9h-25.5
		V164.6z"/>
	<path d="M1128.7,209.1l29.5,52l29.7-52h28.4l-41.6,66.7l42,66.7h-28.4l-30.1-49.9l-30,49.9h-28.5l41.5-66.7l-41-66.7H1128.7z"/>
</g>
<path class="st0" d="M292,251.4c-0.8,2.3-3.1,2.5-5.5,1.6c-1.5-0.5-4.2-1.2-4.7-0.6c-1.1,1.4-2,3.9-1.5,5.5c0.4,1.5,2.7,2.5,4.2,3.6
	c0.3,0.2,0.9,0,1.4,0c2.1,0,3.6,0.9,3.4,3.2c-0.2,2.3-1.9,2.8-4,2.5c-4.5-0.5-6.1,0.8-6.8,5.3c-0.7,4.5-4.4,6.7-8.8,5.2
	c-3.7-1.3-4.7-0.3-4.6,3.4c0.1,1.8-0.3,3.9-1.2,5.4c-1.2,2.1-1,3.2,1.2,3.8c2.4,0.6,3.4,2.2,2.4,4.3c-0.4,1-2.3,2-3.3,1.8
	c-2.3-0.3-3-2.2-2.3-4.4c0.7-2.3-0.3-3.2-2.5-3c-3.2,0.2-5.7-1.3-6.3-4.3c-0.4-2.1,0.2-4.8,1.4-6.6c1.7-2.6,4.7-2.4,7.5-1.3
	c2.9,1.1,4.4,0,4-3.1c-0.4-2.8-0.1-5.4,2.5-7c2.7-1.8,5.3-1.2,8.2,0.3c1.3,0.6,3.7-0.4,5.3-1.2c0.6-0.3,1-2.9,0.6-3.3
	c-1.4-1.2-3.6-2.9-4.9-2.6c-3.2,0.9-5.9,1.3-9-0.5c-2.5-1.4-5,0.7-4.9,3.6c0.3,7.3-3.5,10.5-10.6,8.7c-2.7-0.7-4.8,0.7-4.9,3.6
	c-0.1,3.2-1.1,5.6-4.4,6.1c-3.1,0.5-4.5-1.7-5.8-4.3c-1.7-3.4-5.5-2.2-8.4-2.6c-0.7-0.1-1.5,0.6-2.1,0.4c-1.1-0.4-2.7-1.1-2.9-2
	c-0.2-0.8,0.9-2.2,1.8-3c2.2-2.1,5-3.7,6.7-6.1c0.7-1-0.1-4.2-1.3-5.2c-1.6-1.5-3.1,0-4,1.9c-2,4.1-5.3,6.2-9.9,5.8
	c-4.4-0.4-7.5-2.8-8.7-7c-0.8-2.8-3-3.5-4.6-2.5c-1.7,1-2.9,3.4-3.3,5.4c-0.1,0.9,2.4,3.1,3.8,3.2c3.2,0.2,5.3,1.1,6.2,4.3
	c0.7,2.4,2.1,2.6,4.1,1.5c2-1.1,4.3-1.3,5.2,1.2c0.4,1.2-0.1,3.6-1.1,4.3c-2.1,1.5-4.1,0.6-5.3-1.8c-1.1-2.2-2.5-2.3-4.3-0.7
	c-2,1.8-4.3,2.2-6.6,0.6c-2.3-1.6-2.5-3.9-1.8-6.4c0.9-3.4-1.3-5.6-4.7-4.8c-3.8,0.9-7.6-0.7-9.4-3.7c-1.8-3-1.4-7.3,0.7-9.9
	c2.3-2.8,6.2-3.7,9.9-2.4c1,0.4,2.9,0.8,3.2,0.4c0.9-1.1,1.9-2.9,1.6-4.2c-0.4-1.9-2.2-2.3-4-1.2c-2.4,1.4-4.9,1.1-6.3-1.3
	c-0.7-1.2-0.7-3.5-0.1-4.7c0.7-1.2,2.8-2.4,4-2.2c1.5,0.2,3.6,1.7,3.9,3c0.9,3.3,2.2,4.5,5.6,3.5c2.3-0.7,4.1,0.5,4.3,3.1
	c0.2,2.5-1.3,3.7-3.8,3.8c-4.3,0.3-5.5,1.9-3.6,5.3c0.5,0.9,1.9,1.8,3,1.9c1,0,2.2-0.9,3.1-1.7c2.2-2.1,4-4.6,6.3-6.5
	c2.2-1.7,2.4-4.4,0-6.1c-5.1-3.5-5-7.4,0.5-10.3c2.3-1.2,2.8-3.3,1.8-5.1c-1.2-2.3-3.1-0.9-4.6,0c-2.4,1.5-4.8,2.7-5.2,6.2
	c-0.3,2.8-3,3.7-5.6,2.9c-2.6-0.8-3.5-2.9-3-5.4c0.6-2.7,2.6-3.7,5.2-3.4c6,0.8,9.3-1.3,10.6-6.8c0.6-2.7,2.5-4.6,5.1-4.1
	c1.9,0.4,4.1,2,5.1,3.7c1.3,2.3,0.2,4.7-2.2,6.2c-4.8,3-4.8,3-1.6,7.9c1.6,2.5,1.3,4.8-0.7,6.9c-3.6,3.9-3.2,5.1,1.6,7.4
	c2.8,1.4,4.1,0.4,5.8-1.4c1.4-1.5,1.9-2.8,0.7-4.8c-2.5-4.3-1.9-8.7,1.2-12.5c3.3-3.9,7.6-5.2,12.4-3.4c3.4,1.2,4.7-1.2,4.9-3
	c0.1-1.7-1.7-4.9-3-5.1c-3.7-0.6-7.6-2.7-11.4,0.6c-0.7,0.6-3.5-0.1-4.3-1c-0.7-1-0.7-3.7,0.2-4.4c1-0.9,4.1-1.2,4.6-0.5
	c2.9,4,7.2,2.6,10.9,3.4c0.8,0.2,2.2-0.8,2.9-1.6c2.2-2.7,4.9-3.5,8-2c2.9,1.4,3.8,4,2.9,7c-1,3.4-3.5,4.4-7,4.4
	c-1.3,0-3,1.2-3.8,2.3c-0.6,0.8-0.2,2.7,0.4,3.7c2,3.3,2.5,6.7,1.5,10.4c-0.8,3.2,1.7,5.4,4.9,4.4c0.8-0.2,1.6-0.4,2.4-0.6
	c3.3-0.8,4-3.1,1.7-5.7c-3.4-3.8-3.8-9.2-1-13c2.8-3.9,8.2-5.2,12.7-2.9c3.7,1.8,5.4,5.1,5.4,9.1c0,4.5,1.3,5.5,5.5,4
	c2.3-0.8,4.3-0.2,5.2,1.8c0.6,1.3,0.8,3.7,0,4.5c-1.1,1.1-3.3,1.8-5,1.6c-1-0.1-2.3-1.9-2.7-3.2c-1.2-3.9-2.8-4.2-6.1-2
	c-2.2,1.5-5.1,2.6-7.8,2.9c-4.3,0.3-5.4,1.5-3.6,5.4c1.3,3,0.7,5.6-1.9,6.8c-2.4,1.2-4.8,0.9-6.4-1.4c-0.6-0.8-0.8-2-0.9-3
	c-0.4-4.3-3.1-5.6-6.7-3.2c-3.6,2.4-7.4,2.9-11.3,0.8c-2-1.2-3.3-0.6-4.7,1c-1.3,1.5-3.3,2.7-1.5,5.2c0.4,0.5,0.4,1.4,0.8,2
	c0.7,1.1,1.5,2.8,2.4,2.9c1,0.2,2.5-0.9,3.4-1.9c2.5-2.6,5.9-3.3,8.8-1.5c2.6,1.6,3.7,4.9,2.5,7.9c-1.1,3-4.2,4.5-7.7,3.9
	c-2.7-0.5-7.9,3.1-8,5.8c0,0.8,0.7,2.1,1.3,2.2c2.9,0.7,5.9,2,8.9-0.5c1.2-1,3.5-0.6,5.3-0.8c1.1-0.1,2.6,0.3,3.1-0.2
	c0.7-0.8,0.9-2.3,0.9-3.5c0.1-2.1-0.6-4.4,0-6.3c1.3-4.3,6.4-5.7,10.9-3.5c3.9,1.9,6,0.6,5.9-4.1c-0.3-3.1,1-5.6,4.1-7.1
	c2.9-1.4,5.6-0.7,8,1.4c3.7,3.2,3.9,3.2,6.6-0.9c1.5-2.4,3.9-2.9,5.9-1.3C291.9,247.3,292.5,250,292,251.4z"/>
<g>
	<path class="st1" d="M409.2,253.6c0,4.8-0.2,9.6-0.6,14.4c-0.3,3.1-2.4,5.7-5.5,6.4l-19.3,4.7c-2.7,0.6-4.7,2.8-5.3,5.5
		c-1,4.6-2.3,9.1-3.8,13.6c-0.9,2.6-0.2,5.5,1.7,7.4l14.2,14c2.2,2.2,2.7,5.5,1.4,8.3c-3.8,7.9-8.3,15.5-13.3,22.8
		c-1.8,2.6-5,3.7-7.9,2.8l-19.1-5.6c-2.6-0.8-5.5,0.1-7.3,2.1c-3.2,3.5-6.6,6.8-10.1,10c-2.1,1.8-3,4.7-2.2,7.3l5.3,19.2
		c0.8,3-0.4,6.2-2.9,7.9c-3.6,2.4-7.3,4.8-11.2,7c-3.9,2.2-7.8,4.2-11.7,6.1c-2.8,1.3-6.1,0.7-8.3-1.5l-13.8-14.4
		c-1.9-1.9-4.7-2.7-7.3-1.9c-4.6,1.5-9.3,2.7-14,3.7c-2.6,0.5-4.7,2.6-5.4,5.2l-4.9,19.2c-0.8,3-3.4,5.2-6.5,5.4
		c-8.8,0.6-17.7,0.5-26.4-0.2c-3.1-0.3-5.7-2.4-6.4-5.5l-4.7-19.3c-0.6-2.6-2.7-4.7-5.4-5.3c-4.7-1-9.3-2.3-13.9-3.8
		c-2.6-0.8-5.4-0.1-7.3,1.8l-14,14.2c-2.2,2.2-5.5,2.7-8.3,1.4c-7.9-3.8-15.5-8.3-22.8-13.4c-2.5-1.8-3.7-5-2.8-7.9l5.6-19.1
		c0.8-2.6,0-5.4-2-7.2c-3.5-3.3-6.9-6.7-10.2-10.3c-1.8-2-4.6-2.8-7.2-2.1l-19.2,5.3c-3,0.8-6.2-0.4-7.9-2.9
		c-2.4-3.6-4.8-7.4-7-11.3c-2.2-3.9-4.2-7.8-6.1-11.7c-1.3-2.8-0.7-6.1,1.5-8.3l14.4-13.7c2-1.9,2.7-4.8,1.9-7.4
		c-1.4-4.5-2.6-9.1-3.6-13.7c-0.6-2.7-2.6-4.9-5.2-5.6l-19.2-4.9c-3-0.8-5.2-3.4-5.4-6.5c-0.3-4-0.4-8-0.4-12.1h72.8
		c0,51.9,41.1,95,93.4,97c53.6,2.1,98.7-39.8,100.8-93.3c0-1.2,0.1-2.5,0.1-3.8H409.2z"/>
	<path class="st0" d="M409.2,253.6h-72.8c0-51.9-41.1-95-93.4-97.1c-53.5-2-98.7,39.8-100.7,93.3c0,1.3-0.1,2.5-0.1,3.8H69.3
		c0-4.8,0.2-9.6,0.6-14.3c0.3-3.1,2.4-5.7,5.5-6.4l19.3-4.7c2.6-0.6,4.7-2.7,5.3-5.4c1-4.7,2.3-9.4,3.8-13.9
		c0.8-2.6,0.1-5.4-1.8-7.3l-14.2-14c-2.2-2.2-2.7-5.5-1.4-8.3c3.9-7.9,8.3-15.5,13.4-22.8c1.8-2.5,5-3.7,7.9-2.8l19.1,5.6
		c2.6,0.8,5.5-0.1,7.4-2.1c3.2-3.5,6.5-6.7,10.1-9.9c2.1-1.8,3-4.7,2.2-7.3l-5.3-19.2c-0.8-3,0.4-6.2,2.9-7.9
		c3.6-2.5,7.4-4.8,11.3-7c3.9-2.2,7.8-4.3,11.8-6.1c2.8-1.3,6.1-0.7,8.2,1.5l13.7,14.4c1.9,2,4.8,2.7,7.5,1.8
		c4.5-1.4,9-2.6,13.6-3.6c2.7-0.6,4.9-2.5,5.6-5.2l5-19.3c0.8-3,3.4-5.1,6.5-5.3c8.8-0.6,17.6-0.6,26.4,0.2c3.1,0.3,5.7,2.4,6.4,5.4
		l4.7,19.4c0.6,2.6,2.7,4.7,5.3,5.3c4.7,1,9.3,2.3,13.9,3.8c2.6,0.8,5.4,0.1,7.3-1.8l13.9-14.2c2.2-2.2,5.5-2.7,8.3-1.4
		c7.9,3.9,15.5,8.3,22.8,13.4c2.6,1.8,3.7,5,2.8,7.9l-5.6,19c-0.8,2.6,0.1,5.5,2.1,7.3c3.5,3.2,6.8,6.6,9.9,10.1
		c1.8,2.1,4.7,2.9,7.3,2.2l19.2-5.3c3-0.8,6.1,0.4,7.9,2.9c2.4,3.6,4.8,7.4,7,11.2c2.2,3.9,4.2,7.8,6.1,11.8
		c1.3,2.8,0.7,6.1-1.5,8.3l-14.4,13.7c-2,1.9-2.7,4.7-1.9,7.3c1.5,4.6,2.7,9.4,3.7,14c0.6,2.6,2.6,4.7,5.2,5.4l19.2,5
		c3,0.8,5.1,3.4,5.4,6.5C409.1,245.6,409.2,249.6,409.2,253.6z"/>
</g>
</svg>
